<svg width="1100" height="1100" xmlns="http://www.w3.org/2000/svg">
 <g>
  <title>Layer 1</title>
  <path d="m734,63c-5.156,8.9192 -13.25,16.4694 -21,23.1304c-22.133,19.0216 -48.605,30.9516 -77,37.0796c-40.959,8.839 -82.535,6.04 -124,8.879c-32.995,2.26 -67.021,9.977 -98,21.441c-83.504,30.9 -152.371,96.289 -190.219,176.47c-9.231,19.555 -16.304,40.942 -21.13,62c-1.589,6.933 -3.039,13.985 -4.216,21c-0.512,3.05 -0.375,7.012 -2.373,9.566c-3.383,4.322 -12.27,2.14 -17.062,2.604c-13.745,1.33 -28.11,5.742 -41,10.511c-34.217,12.662 -64.4954,37.825 -85.5725,67.319c-40.9414,57.29 -47.57838,137.153 -18.1181,201c14.1931,30.76 37.1687,57.904 64.6906,77.573c22.04,15.75 48.304,28.971 75,34.423c21.891,4.471 43.785,4.004 66,4.004c-2.139,-11.52 0,-24.236 0,-36c0,-23.361 -0.587,-46.623 -0.015,-70c0.62,-25.3 0.015,-50.692 0.015,-76c0,-15.698 -0.633,-31.499 2.261,-47c6.11,-32.735 22.747,-62.021 46.739,-84.961c50.245,-48.041 131.473,-56.451 189,-16.003c22.522,15.836 40.353,38.007 51.769,62.964c6.884,15.049 13.513,33.319 14.231,50c2.557,-4.808 2.485,-10.729 3.665,-16c1.73,-7.725 4.32,-15.564 7.03,-23c8.175,-22.426 22.88,-43.679 40.305,-59.911c43.318,-40.351 109.9,-51.404 164,-26.994c21.834,9.851 40.846,25.249 55.8,43.905c7.466,9.314 14.73,19.166 19.88,30c8.515,17.914 14.26,37.222 16.15,57c1.909,19.974 0.17,40.93 0.17,61l0,152c17.434,0 35.754,0.367 53,-2.296c41.255,-6.372 82.421,-27.304 111.91,-56.793c60.88,-60.88 79.14,-161.628 35.75,-237.911c-18.16,-31.933 -44.73,-58.912 -76.66,-77.127c-24.827,-14.165 -52.586,-21.838 -81,-23.784c-9.423,-0.645 -18.644,0.718 -28,0.911c-0.885,-20.316 -7.587,-41.937 -14.309,-61c-16.902,-47.933 -43.683,-90.994 -79.691,-127c-10.652,-10.651 -21.973,-20.415 -34,-29.475c-7.012,-5.281 -13.879,-11.021 -22,-14.525c3.931,-12.292 5.677,-25.292 7.754,-38c3.375,-20.65 6.26,-41.24 8.964,-62c1.255,-9.6271 1.022,-19.5336 3.282,-29l-2,0m-350,511c1.644,8.855 1,18.023 1,27l0,44l0,139c31.683,0 64.477,-3.984 96,0l0,-210l-97,0m225,210l71,0l17,0c2.236,-0.005 5.508,0.468 7.397,-1.028c3.47,-2.748 0.941,-10.341 0.692,-13.972c-0.837,-12.224 -0.089,-24.746 -0.089,-37l0,-158l-70,0l-18,0c-2.218,0.005 -5.528,-0.478 -7.393,1.028c-2.838,2.291 -0.623,9.748 -0.608,12.972c0.061,12.666 0.001,25.334 0.001,38l0,158z" fill="#6b0202" id="svg_2"/>
 </g>

</svg>